<?xml version="1.0" encoding="utf-8"?>
<!-- Generator: Adobe Illustrator 26.1.0, SVG Export Plug-In . SVG Version: 6.00 Build 0)  -->
<svg version="1.1" id="Layer_1" xmlns="http://www.w3.org/2000/svg" xmlns:xlink="http://www.w3.org/1999/xlink" x="0px" y="0px"
	 viewBox="0 0 190 160" style="enable-background:new 0 0 190 160;" xml:space="preserve">
<style type="text/css">
	.st0{fill-rule:evenodd;clip-rule:evenodd;}
</style>
<g id="Layer_x0020_1">
	<path class="st0" d="M97.1,159.3l25.4-37.9c-1.3-0.1-1.4-0.3-1.8-0.3c-0.4,0-0.7,0.4-1.6,0.4l-4.2,0c-1.1,0-1.3-0.2-1.8-0.2
		c-0.1,0-2.4,0.5-3.7,0.1c-2.6-0.8-1.2-3.8-1.2-4.2c0.1-0.6,0-1.4,0-2.1c-0.5,0.3-1.2,1.4-1.4,2.1c0.1,0.5,0.1,0.2,0.3,0.5
		c0.3,0.5,0.4,1.3,0.3,1.8c-0.6,2.2-2.5,1.9-4.4,1.9c-1.2,0-1.9,0.2-2.5-0.5c-1.2,0.8-2.3,0.5-4.2,0.5c-1.5,0-5.9,0.2-7.2,0
		c-0.4-0.1-0.6-0.2-0.9-0.2c-0.3,0-0.3,0.2-0.8,0.2c-2.4,0.2-6.6-0.1-9.5,0.1l0,0h-0.5c-0.5,0-1.1-0.1-1.8-0.1c-0.5,0-1,0-1.5,0
		L97.1,159.3L97.1,159.3z M159.8,58l30-57.2H97.1H0.2l35.1,57.4c1.2-0.4,2.4-0.9,3.5-1.4c3.4-1.6,2.4-1.3,3-4.4
		c0.6-2.9,1.4-6.1,2.3-8.7c1.9-5.2,4.5-10.1,7.7-14.6c0.5-0.8,1-1.4,1.6-2.1c0.3-0.4,0.6-0.7,0.9-1c0.3-0.4,0.5-0.6,0.8-1
		c2-2.6,6.8-6.7,9.7-8.8c2.2-1.5,4.4-3,6.9-4.2c1.7-0.8,3.2-1.6,5.1-2.3c6.1-2.5,12.5-3.7,18.7-4h4.3c9.1,0.3,17.8,2.9,25.3,7
		c0.9,0.5,1.6,0.9,2.4,1.4c4,2.4,9,6.5,12.2,10c0.2,0.3,0.2,0.3,0.4,0.5l2.9,3.5c0.5,0.7,1.1,1.4,1.5,2.2c2,3,3.9,6.1,5.3,9.5
		c0.4,0.9,0.7,1.6,1.1,2.6c1,2.9,1.8,5.6,2.5,8.7c0.5,2.2,0.3,3.9,1.2,4.4c0.4,0.2,0.8,0.4,1.2,0.6C157,56.9,158.5,57.5,159.8,58
		L159.8,58z"/>
	<path class="st0" d="M136.9,73.9V61.4c0-22-18-39.9-39.9-39.9l0,0c-22,0-38.2,18-39.9,39.9l-1,11.8
		C84.1,72.3,110.1,72.6,136.9,73.9L136.9,73.9z M73.5,64.2L62.7,60c4.7-0.6,9.3-1.1,14-1.7C75.4,60.1,74.3,62.1,73.5,64.2z
		 M96.2,50.9c10.3,0,21.4,8.5,22,19.1c-14.5-0.5-29-0.6-43.9-0.4C75.1,59.1,86,50.9,96.2,50.9z M97.1,33.3l5.2,16.4
		c-2-0.5-4-0.7-6.1-0.7c-1.5,0-3,0.1-4.4,0.4L97.1,33.3L97.1,33.3z M104.6,50.3l14.2-10.7l-5,16.3C111.2,53.5,108.1,51.5,104.6,50.3
		z M119.1,64.2l10.8-4.1l-14-1.7C117.2,60.1,118.3,62.1,119.1,64.2z M79.4,55.2l-4.8-15.5l13.9,10.4C85.1,51.2,82,52.9,79.4,55.2
		L79.4,55.2z"/>
	<path class="st0" d="M24.3,74.6c54.2-3.1,99.1-2.3,150.2,1.8l7.1,32.7l-161.1-1.3L24.3,74.6L24.3,74.6z M42.5,103.1
		c-1.5-0.2-3-0.8-4.5-1.8c-1.4-0.9-2.6-2.3-3.6-4c-0.2-0.4-0.4-0.7-0.5-1.1v0c-0.8-1.8-1.1-4.1-1.1-6.9c0-4.6,0.8-7.7,2.5-9.3
		c1.6-1.6,3.4-2.3,5.2-2.3c1.8,0,3.6,0.8,5.2,2.3c1.6,1.6,2.5,4.6,2.5,9.3c0,3.7-0.6,6.4-1.7,8.2c-1.1,1.7-2.5,2.8-4.1,3.2
		c0.8,0.4,2,0.7,3.4,0.7c1.1,0,2.1-0.1,3.3-0.4c-0.9,1.6-2.5,2.3-4.8,2.3C43.8,103.3,43.2,103.2,42.5,103.1L42.5,103.1z M40.4,98.4
		c2.1,0,3.4-1.9,4.1-5.8c0-0.6-0.2-1.2-0.5-1.8c-0.3-0.6-0.7-1-1.2-1c-0.2,0-0.5,0.1-0.7,0.3c0-0.5,0.2-0.9,0.6-1.2
		c0.4-0.3,0.8-0.4,1.2-0.4c0.3,0,0.5,0,0.6,0.1l0.3,0.1c-0.1-1.9-0.4-3.8-1-5.8c-0.6-1.9-1.7-2.9-3.3-2.9c-1.6,0-2.6,0.9-3.3,2.7
		c-0.6,1.8-1,3.7-1,5.6c0,0.6,0.2,1.2,0.5,1.8c0.3,0.6,0.7,0.9,1.2,0.9c0.2,0,0.5-0.1,0.7-0.3c0,0.5-0.2,1-0.7,1.3
		c-0.5,0.3-0.9,0.4-1.4,0.3c0.3,1.7,0.7,3,1.3,4.1l0,0C38.4,97.8,39.3,98.4,40.4,98.4L40.4,98.4z M55.9,98.2c-1.6,0-2.9-0.7-3.7-2
		c-0.8-1.3-1.2-2.9-1.2-4.6c0-0.6-0.2-1.1-0.6-1.7c-0.3-0.5-0.7-0.8-1.1-0.8c-0.2,0-0.4,0.1-0.7,0.3c0-0.5,0.2-0.8,0.5-1.1
		c0.4-0.3,0.7-0.5,1.2-0.5c0.1,0,0.1,0,0.2,0c0.2,0,0.4,0,0.5,0.1v-3.5c0-1-0.1-1.6-0.2-2c-0.1-0.4-0.4-0.7-0.9-1h5
		c-0.5,0.3-0.8,0.6-0.9,1c-0.1,0.4-0.2,1-0.2,2v7.2c0,2.9,0.7,4.3,2.1,4.3c1.4,0,2.1-1.4,2.1-4.3v-7.2c0-1-0.1-1.6-0.2-2
		c-0.1-0.4-0.4-0.7-0.9-1h5c-0.5,0.3-0.8,0.6-0.9,1c-0.1,0.4-0.2,1-0.2,2v7.2c0,1.7-0.4,3.3-1.2,4.6C58.7,97.6,57.5,98.2,55.9,98.2z
		 M62.4,98.3c0.5-0.3,0.8-0.6,0.9-1c0.1-0.4,0.2-1,0.2-2v-3.4c0-0.6-0.2-1.2-0.5-1.8c-0.3-0.6-0.7-1-1.2-1c-0.2,0-0.4,0.1-0.7,0.3
		c0-0.5,0.2-0.8,0.5-1.1c0.4-0.3,0.7-0.5,1.2-0.5H63c0.2,0,0.4,0,0.5,0.1v-3.5c0-1-0.1-1.6-0.2-2c-0.1-0.4-0.4-0.7-0.9-1h5
		c-0.5,0.3-0.8,0.6-0.9,1c-0.1,0.4-0.2,1-0.2,2v10.8c0,1,0.1,1.6,0.2,2c0.1,0.4,0.4,0.7,0.9,1L62.4,98.3L62.4,98.3z M67.9,98.3
		c0.5-0.3,0.8-0.6,0.9-1c0.1-0.4,0.2-1,0.2-2v-3.4c0-0.6-0.2-1.2-0.5-1.8c-0.3-0.6-0.7-1-1.2-1c-0.2,0-0.4,0.1-0.7,0.3
		c0-0.5,0.2-0.8,0.5-1.1c0.4-0.3,0.7-0.5,1.2-0.5h0.2c0.2,0,0.3,0,0.5,0.1v-3.6c0-1-0.1-1.6-0.2-2c-0.1-0.4-0.4-0.7-0.9-1h3.9
		l3.8,5.6v-2.6c0-0.9-0.1-1.6-0.2-1.9c-0.1-0.4-0.4-0.7-0.9-1h5c-0.4,0.2-0.7,0.5-0.9,0.8c-0.1,0.3-0.2,0.8-0.2,1.5
		c0,0.1,0,0.3,0,0.6v10.8c0,0.9,0.1,1.5,0.2,1.9c0.1,0.4,0.4,0.7,0.8,1l0.2,0.1h-5c0.5-0.3,0.8-0.6,0.9-1c0.1-0.4,0.2-1,0.2-2V91
		l-3.8-5.3v9.7c0,1,0.1,1.6,0.2,2c0.1,0.4,0.4,0.7,0.9,1L67.9,98.3L67.9,98.3z M82.2,98.2c0.5-0.3,0.8-0.6,0.9-1
		c0.1-0.4,0.2-1,0.2-2v-3.4c0-0.6-0.2-1.2-0.5-1.8c-0.4-0.6-0.7-0.9-1.2-0.9c-0.2,0-0.4,0.1-0.7,0.3c0-0.5,0.2-0.8,0.5-1.1
		c0.4-0.3,0.7-0.5,1.2-0.5c0.1,0,0.1,0,0.2,0c0.2,0,0.4,0,0.5,0.1v-4.7h-0.5c-0.9,0-1.6,0.2-2.3,0.5c-0.7,0.3-1.3,0.7-1.7,1.1
		l1.4-3.4h9.2l1.4,3.4c-0.4-0.4-1-0.8-1.7-1.1c-0.7-0.3-1.5-0.5-2.3-0.5h-0.5v12c0,0.9,0.1,1.6,0.2,2c0.1,0.4,0.4,0.7,0.9,1
		L82.2,98.2L82.2,98.2z M91.3,98.3c0.5-0.3,0.8-0.6,0.9-1c0.1-0.4,0.2-1,0.2-2v-3.4c0-0.6-0.2-1.2-0.5-1.8c-0.3-0.6-0.7-1-1.2-1
		c-0.2,0-0.4,0.1-0.7,0.3c0-0.5,0.2-0.8,0.5-1.1c0.4-0.3,0.7-0.5,1.2-0.5h0.1c0.2,0,0.4,0,0.5,0.1v-3.5c0-1-0.1-1.6-0.2-2
		c-0.1-0.4-0.4-0.7-0.9-1h9.5V85c-0.3-0.5-0.8-0.9-1.6-1.2c-0.7-0.3-1.7-0.5-2.8-0.5h-1.1v4.9h1.1c0.4,0,0.8-0.1,1.1-0.3
		c0.3-0.2,0.6-0.4,0.8-0.7V91c-0.2-0.2-0.5-0.5-0.8-0.6c-0.3-0.2-0.7-0.3-1.1-0.3h-1.1v6.4h2c1.1,0,2.1-0.2,3-0.5
		c0.8-0.3,1.5-0.7,1.9-1.1l-1.4,3.4L91.3,98.3L91.3,98.3z M103.9,93.8c0,0.3,0,0.6,0.1,0.8c0.1,0.2,0.1,0.3,0.2,0.4
		c1.2,0.6,2.1,0.9,2.8,0.9c0.6,0,1.1-0.3,1.4-0.8c0.2-0.3,0.3-0.5,0.3-0.8c0-0.5-0.2-1-0.6-1.4c-0.4-0.5-1.1-1.2-2.1-2.2v0l-0.1-0.1
		l-0.3-0.3c-0.5-0.5-1.1-1-1.7-1.3c-0.6-0.4-1.2-0.6-1.6-0.6c-0.4,0-0.7,0.1-0.9,0.4c0-0.5,0.2-0.8,0.5-1.1c0.4-0.3,0.7-0.5,1.2-0.5
		c-0.2-0.6-0.3-1.1-0.3-1.7c0-1.1,0.3-2,1-2.8c0.7-0.8,1.7-1.1,3-1.1c0.9,0,1.7,0.1,2.3,0.4l0.1,0c0.3,0,0.6-0.1,0.9-0.3
		c-0.6,1-1.3,2.1-2,3.2c0-0.3-0.1-0.5-0.3-0.5c-0.6-0.3-1.1-0.4-1.4-0.4c-0.4,0-0.7,0.2-1,0.5c-0.1,0.2-0.2,0.4-0.2,0.7
		c0,1.1,1.1,2.6,3.4,4.4c1.9,1.6,2.8,3.1,2.8,4.7c0,1.1-0.5,2.2-1.6,3.2c-0.8,0.7-1.8,1.1-3.2,1.1c-0.7,0-1.3-0.1-1.9-0.2
		c-0.6-0.1-1.2-0.3-1.9-0.5c-0.2,0-0.3-0.1-0.4-0.1c-0.2,0-0.4,0-0.7,0.1L103.9,93.8L103.9,93.8z M113.2,93.8c0,0.3,0,0.6,0.1,0.8
		c0.1,0.2,0.1,0.3,0.2,0.4c1.2,0.6,2.1,0.9,2.8,0.9c0.6,0,1.1-0.3,1.4-0.8c0.2-0.3,0.3-0.5,0.3-0.8c0-0.5-0.2-1-0.6-1.4
		c-0.4-0.5-1.1-1.2-2.1-2.2v0l-0.1-0.1l-0.3-0.3c-0.5-0.5-1.1-1-1.7-1.3c-0.6-0.4-1.2-0.6-1.6-0.6c-0.4,0-0.7,0.1-0.9,0.4
		c0-0.5,0.2-0.8,0.5-1.1c0.4-0.3,0.7-0.5,1.2-0.5c-0.2-0.6-0.3-1.1-0.3-1.7c0-1.1,0.3-2,1-2.8c0.7-0.8,1.7-1.1,3-1.1
		c0.9,0,1.7,0.1,2.3,0.4l0.1,0c0.3,0,0.6-0.1,0.9-0.3c-0.6,1-1.3,2.1-2,3.2c0-0.3-0.1-0.5-0.3-0.5c-0.6-0.3-1.1-0.4-1.4-0.4
		c-0.4,0-0.7,0.2-1,0.5c-0.1,0.2-0.2,0.4-0.2,0.7c0,1.1,1.1,2.6,3.4,4.4c1.9,1.6,2.8,3.1,2.8,4.7c0,1.1-0.5,2.2-1.6,3.2
		c-0.8,0.7-1.8,1.1-3.2,1.1c-0.7,0-1.3-0.1-1.9-0.2c-0.6-0.1-1.2-0.3-1.9-0.5c-0.2,0-0.3-0.1-0.4-0.1c-0.2,0-0.4,0-0.7,0.1
		L113.2,93.8L113.2,93.8z M121.1,98.3c0.5-0.3,0.8-0.6,0.9-1c0.1-0.4,0.2-1,0.2-2v-3.4c0-0.6-0.2-1.2-0.5-1.8c-0.3-0.6-0.7-1-1.2-1
		c-0.2,0-0.4,0.1-0.7,0.3c0-0.5,0.2-0.8,0.5-1.1c0.4-0.3,0.7-0.5,1.2-0.5h0.1c0.2,0,0.4,0,0.5,0.1v-3.5c0-1-0.1-1.6-0.2-2
		c-0.1-0.4-0.4-0.7-0.9-1h9.5V85c-0.3-0.5-0.8-0.9-1.6-1.2c-0.7-0.3-1.7-0.5-2.8-0.5h-1.1v4.9h1.1c0.4,0,0.8-0.1,1.1-0.3
		c0.3-0.2,0.6-0.4,0.8-0.7V91c-0.2-0.2-0.5-0.5-0.8-0.6c-0.3-0.2-0.7-0.3-1.1-0.3h-1.1v6.4h2c1.1,0,2.1-0.2,3-0.5
		c0.8-0.3,1.5-0.7,1.9-1.1l-1.4,3.4L121.1,98.3L121.1,98.3z M132.5,98.3c0.5-0.3,0.8-0.6,0.9-1c0.1-0.4,0.2-1,0.2-2v-3.4
		c0-0.6-0.2-1.2-0.5-1.8c-0.3-0.6-0.7-1-1.2-1c-0.2,0-0.4,0.1-0.7,0.3c0-0.5,0.2-0.8,0.5-1.1c0.4-0.3,0.7-0.5,1.2-0.5h0.2
		c0.2,0,0.3,0,0.5,0.1v-3.6c0-1-0.1-1.6-0.2-2c-0.1-0.4-0.4-0.7-0.9-1h3.9l3.8,5.6v-2.6c0-0.9-0.1-1.6-0.2-1.9
		c-0.1-0.4-0.4-0.7-0.9-1h5c-0.4,0.2-0.7,0.5-0.9,0.8c-0.1,0.3-0.2,0.8-0.2,1.5c0,0.1,0,0.3,0,0.6v10.8c0,0.9,0.1,1.5,0.2,1.9
		c0.1,0.4,0.4,0.7,0.8,1l0.2,0.1h-5c0.5-0.3,0.8-0.6,0.9-1c0.1-0.4,0.2-1,0.2-2V91l-3.8-5.3v9.7c0,1,0.1,1.6,0.2,2
		c0.1,0.4,0.4,0.7,0.9,1L132.5,98.3L132.5,98.3z M151.4,98.3c-1.8,0-3.2-0.6-4.1-1.9c-0.9-1.2-1.4-2.7-1.6-4.5v0l0-0.5
		c-0.1-0.5-0.3-1-0.6-1.5c-0.3-0.5-0.7-0.7-1-0.7c-0.2,0-0.4,0.1-0.7,0.3c0-0.5,0.2-0.9,0.6-1.2c0.4-0.3,0.8-0.4,1.2-0.4
		c0.2,0,0.4,0,0.5,0.1c0.2-1.8,0.8-3.3,1.6-4.6c0.9-1.3,2.2-1.9,4.1-1.9c1.4,0,2.6,0.4,3.6,1.3c0.1,0.1,0.2,0.2,0.3,0.2
		c0.2,0.1,0.3,0.1,0.5,0l-2.5,2.5c0-0.1,0.1-0.2,0.1-0.2c0-0.2-0.1-0.4-0.3-0.6c-0.5-0.7-1.1-1-1.7-1c-0.9,0.1-1.6,0.6-2.2,1.6
		c-0.6,1-0.9,2.5-0.9,4.5c0,2,0.3,3.5,0.9,4.5c0.6,1,1.3,1.6,2.2,1.6c0.6,0,1.2-0.3,1.7-1c0.3-0.3,0.3-0.6,0.2-0.9l2.5,2.5h-0.2
		c-0.3,0-0.5,0.1-0.7,0.3C154.1,97.8,152.9,98.3,151.4,98.3L151.4,98.3z M156.4,98.3c0.5-0.3,0.8-0.6,0.9-1c0.1-0.4,0.2-1,0.2-2
		v-3.4c0-0.6-0.2-1.2-0.5-1.8c-0.3-0.6-0.7-1-1.2-1c-0.2,0-0.4,0.1-0.7,0.3c0-0.5,0.2-0.8,0.5-1.1c0.4-0.3,0.7-0.5,1.2-0.5h0.1
		c0.2,0,0.4,0,0.5,0.1v-3.5c0-1-0.1-1.6-0.2-2c-0.1-0.4-0.4-0.7-0.9-1h9.5V85c-0.3-0.5-0.8-0.9-1.6-1.2c-0.7-0.3-1.7-0.5-2.8-0.5
		h-1.1v4.9h1.1c0.4,0,0.8-0.1,1.1-0.3c0.3-0.2,0.6-0.4,0.8-0.7V91c-0.2-0.2-0.5-0.5-0.8-0.6c-0.3-0.2-0.7-0.3-1.1-0.3h-1.1v6.4h2
		c1.1,0,2.1-0.2,3-0.5c0.8-0.3,1.5-0.7,1.9-1.1l-1.4,3.4L156.4,98.3L156.4,98.3z"/>
	<path class="st0" d="M24.5,71.1c0.5-9.8,7.8-6.5,19-13.5C46.5,30.2,69.7,8.8,97.8,8.8l0,0c28,0,51.3,21.4,54.3,48.7
		c11.2,7.1,18.6,3.7,19.1,13.6L139.6,69l-0.2-4.5c0-1.1,2.9-3.2,5.2-4.8c0.1-0.1,0.2-0.2,0.3-0.4c-3-23.3-23.1-41.4-47.1-41.4l0,0
		c-24.4,0-44.7,18.6-47.3,42.4c2.1,1.5,4.5,3.4,4.5,4.3L54.8,69L24.5,71.1L24.5,71.1z"/>
	<polygon class="st0" points="20.3,112.9 41.7,116.8 41.2,112.1 20.4,110.3 	"/>
	<polygon class="st0" points="181.2,113.6 154.5,117.7 155,112 181.6,110.3 	"/>
	<path d="M47.5,113l0,0.2c0.4,0,0.5,0.3,0.5,0.9v3.8c0,0.7-0.1,0.9-0.5,0.9l0,0.2h3v-0.2c-0.3,0-0.6-0.1-0.6-1.2v-2h0.2
		c0.5,0,0.9,0,1.3,0.3c0.2,0.2,0.3,0.5,0.4,0.8H52l-0.3-2.5l-0.2,0l0,0.2c0,0.7-0.5,0.6-1.1,0.6h-0.5v-0.6c0-0.2-0.1-0.5,0.2-0.7
		c0.2-0.1,0.5-0.2,0.7-0.2c1,0,1.7,0.6,2,1.5L53,115l-0.4-2.2c-0.1,0.2-0.3,0.1-0.5,0.1L47.5,113L47.5,113z"/>
	<path id="_x31_" d="M53.4,117.9c0,0.7-0.1,0.9-0.5,0.9v0.2h2.9v-0.2c-0.4,0-0.5-0.3-0.5-0.9v-1.6l0.3-0.1c0.4,0.5,1.3,1.8,1.3,2.4
		c0,0.3-0.2,0.3-0.4,0.3v0.2h3.1v-0.2c-0.4,0-0.6-0.4-0.7-0.8c-0.3-1-0.9-1.9-1.6-2.6c0.6-0.3,1.3-0.8,1.3-1.6
		c0-0.4-0.2-0.6-0.5-0.8c-0.4-0.1-0.8-0.1-1.1-0.1h-4.2v0.2c0.4,0,0.5,0.3,0.5,0.9L53.4,117.9L53.4,117.9z M56.8,114.3
		c0,0.8-0.9,1.2-1.5,1.3v-1.4c0-0.1,0-0.4,0.1-0.5c0.1-0.1,0.4-0.2,0.6-0.2C56.5,113.6,56.8,113.8,56.8,114.3L56.8,114.3z"/>
	<path id="_x32_" d="M61.8,116.7c0.5,0,1,0.1,1.4,0.4c0.4,0.2,0.8,0.7,0.8,1.2c0,0.3-0.2,0.5-0.5,0.5v0.2h3.2v-0.2
		c-0.5-0.1-0.6-0.7-0.8-1.1c-0.6-1.9-1.5-4.3-1.5-4.4c0-0.2,0.1-0.2,0.2-0.2V113h-2.7v0.2c0.1,0,0.2,0.1,0.2,0.2
		c0,0.1-0.1,0.4-0.2,0.5l-1.5,3.9c-0.2,0.4-0.4,1-0.9,1.1v0.2h2.1v-0.2c-0.3,0-0.4-0.1-0.4-0.4c0-0.2,0.1-0.6,0.2-0.8L61.8,116.7
		L61.8,116.7z M63.3,116.4c-0.4-0.3-0.8-0.5-1.3-0.5l0.6-1.8L63.3,116.4z"/>
	<path id="_x33_" d="M70.3,113.6c0.9,0.1,1.4,0.5,1.8,1.3l0.2,0l-0.4-2.1c-0.1,0.2-0.6,0.1-0.8,0.1h-3.4c-0.1,0-0.3,0-0.4,0
		c-0.1,0-0.3,0-0.3-0.1l-0.5,2.1l0.2,0c0.2-0.8,0.9-1.3,1.8-1.3v4.2c0,0.7-0.1,1-0.7,1v0.2H71v-0.2c-0.6,0-0.7-0.3-0.7-1L70.3,113.6
		L70.3,113.6z"/>
	<path id="_x34_" d="M78.2,116.8l-0.2-0.1c-0.5,1-1.3,1.7-2.5,1.7c-0.7,0-0.9-0.2-0.9-0.9v-2h0.3c0.5,0,0.9,0,1.2,0.3
		c0.2,0.2,0.4,0.4,0.5,0.7l0.2,0l-0.4-2.4l-0.2,0c0,0.8-0.6,0.8-1.2,0.8h-0.3v-0.3c0-0.7-0.1-1.1,0.9-1.1c0.9,0,1.7,0.5,2,1.4
		l0.2-0.1l-0.5-2.1c-0.2,0.2-0.6,0.1-0.8,0.1h-4.2v0.2c0.4,0,0.5,0.3,0.5,0.9v3.8c0,0.7-0.1,0.9-0.5,0.9v0.2h4.6c0.1,0,0.2,0,0.3,0
		c0.1,0,0.2,0,0.3,0.1L78.2,116.8z"/>
	<path id="_x35_" d="M78.9,117.9c0,0.7-0.1,0.9-0.5,0.9v0.2h2.9v-0.2c-0.4,0-0.5-0.3-0.5-0.9v-1.6l0.3-0.1c0.4,0.5,1.3,1.8,1.3,2.4
		c0,0.3-0.2,0.3-0.4,0.3v0.2h3.1v-0.2c-0.4,0-0.6-0.4-0.7-0.8c-0.3-1-0.9-1.9-1.6-2.6c0.6-0.3,1.3-0.8,1.3-1.6
		c0-0.4-0.2-0.6-0.5-0.8c-0.4-0.1-0.8-0.1-1.1-0.1h-4.2v0.2c0.4,0,0.5,0.3,0.5,0.9L78.9,117.9L78.9,117.9z M82.3,114.3
		c0,0.8-0.9,1.2-1.5,1.3v-1.4c0-0.1,0-0.4,0.1-0.5c0.1-0.1,0.4-0.2,0.6-0.2C82,113.6,82.3,113.8,82.3,114.3L82.3,114.3z"/>
	<path id="_x36_" d="M90.6,114.1c0-0.7,0.1-0.9,0.5-0.9V113h-1.9v0.2c0.4,0,0.6,0.3,0.6,0.9v1.2l-1-1.3c-0.1-0.1-0.4-0.4-0.4-0.6
		c0-0.1,0.1-0.2,0.2-0.3V113h-3.6v0.2c0.4,0,0.5,0.3,0.5,0.9v3.8c0,0.7-0.1,0.9-0.5,0.9v0.2h1.8v-0.2c-0.4,0-0.5-0.3-0.5-0.9v-3.9
		l2.8,3.2c0.3,0.3,0.6,0.6,0.6,1.1c0,0.3-0.2,0.5-0.5,0.5v0.2h1.9v-0.2c-0.4,0-0.5-0.3-0.5-0.9V114.1z"/>
	<path id="_x37_" d="M93.7,114.1c0-0.7,0.1-0.9,0.5-0.9V113h-2.9v0.2c0.4,0,0.5,0.3,0.5,0.9v3.8c0,0.7-0.1,0.9-0.5,0.9v0.2h2.9v-0.2
		c-0.4,0-0.5-0.3-0.5-0.9V114.1z"/>
	<path id="_x38_" d="M98.1,113.6c0.9,0.1,1.4,0.5,1.8,1.3l0.2,0l-0.4-2.1c-0.1,0.2-0.6,0.1-0.8,0.1h-3.4c-0.1,0-0.3,0-0.4,0
		c-0.1,0-0.3,0-0.3-0.1l-0.5,2.1l0.2,0c0.2-0.8,0.9-1.3,1.8-1.3v4.2c0,0.7-0.1,1-0.7,1v0.2h3.4v-0.2c-0.6,0-0.7-0.3-0.7-1
		L98.1,113.6L98.1,113.6z"/>
	<path id="_x39_" d="M104.4,116.3l0.9-1.4l0.7-1.1c0.2-0.2,0.4-0.4,0.7-0.5V113h-1.8v0.2c0.2,0,0.4,0.1,0.4,0.3c0,0.2-0.5,1-0.6,1.2
		l-0.4,0.7l-0.7-1.3c-0.1-0.1-0.2-0.4-0.2-0.5c0-0.2,0.1-0.3,0.4-0.4V113h-3.4v0.2c0.4,0.1,0.6,0.5,0.8,0.8l1.4,2.3v1.6
		c0,0.7-0.1,1-0.6,1v0.2h3.2v-0.2c-0.5,0-0.6-0.3-0.7-1L104.4,116.3L104.4,116.3z"/>
	<path id="_x31_0" d="M115.5,114.1c0-0.7,0.1-0.9,0.5-0.9V113h-1.9v0.2c0.4,0,0.6,0.3,0.6,0.9v1.2l-1-1.3c-0.1-0.1-0.4-0.4-0.4-0.6
		c0-0.1,0.1-0.2,0.2-0.3V113h-3.6v0.2c0.4,0,0.5,0.3,0.5,0.9v3.8c0,0.7-0.1,0.9-0.5,0.9v0.2h1.8v-0.2c-0.4,0-0.5-0.3-0.5-0.9v-3.9
		l2.8,3.2c0.3,0.3,0.6,0.6,0.6,1.1c0,0.3-0.2,0.5-0.5,0.5v0.2h1.9v-0.2c-0.4,0-0.5-0.3-0.5-0.9L115.5,114.1L115.5,114.1z"/>
	<path id="_x31_1" d="M118.6,114.1c0-0.7,0.1-0.9,0.5-0.9V113h-2.9v0.2c0.4,0,0.5,0.3,0.5,0.9v3.8c0,0.7-0.1,0.9-0.5,0.9v0.2h2.9
		v-0.2c-0.4,0-0.5-0.3-0.5-0.9V114.1z"/>
	<path id="_x31_2" d="M125.9,116.7c0-0.5-0.1-1,0.6-1.1v-0.2h-3v0.2c0.6,0,0.6,0.5,0.6,1v0.9c0,0.2,0,0.5-0.1,0.7
		c-0.1,0.2-0.4,0.3-0.7,0.3c-1.3,0-1.9-1.5-1.9-2.6c0-1.2,0.5-2.4,1.8-2.4c0.9,0,1.7,0.6,2,1.4l0.2,0l-0.3-2.2
		c-0.1,0.2-0.3,0.3-0.5,0.3c-0.1,0-0.3,0-0.4-0.1c-0.5-0.1-0.8-0.1-1.5-0.1c-1.9,0-3.4,0.9-3.4,3c0,1,0.5,2,1.3,2.6
		c0.8,0.6,1.8,0.7,2.7,0.7h3v-0.2c-0.1-0.1-0.3-0.1-0.4-0.3c-0.1-0.2-0.1-0.6-0.1-0.8V116.7z"/>
	<path id="_x31_3" d="M132.8,116.8l-0.2-0.1c-0.5,1-1.3,1.7-2.5,1.7c-0.7,0-0.9-0.2-0.9-0.9v-2h0.3c0.5,0,0.9,0,1.2,0.3
		c0.2,0.2,0.4,0.4,0.5,0.7l0.2,0l-0.4-2.4l-0.2,0c0,0.8-0.6,0.8-1.2,0.8h-0.3v-0.3c0-0.7-0.1-1.1,0.9-1.1c0.9,0,1.7,0.5,2,1.4
		l0.2-0.1l-0.5-2.1c-0.2,0.2-0.6,0.1-0.8,0.1h-4.2v0.2c0.4,0,0.5,0.3,0.5,0.9v3.8c0,0.7-0.1,0.9-0.5,0.9v0.2h4.6c0.1,0,0.2,0,0.3,0
		c0.1,0,0.2,0,0.3,0.1L132.8,116.8L132.8,116.8z"/>
	<path id="_x31_4" d="M133.5,117.9c0,0.7-0.1,0.9-0.5,0.9v0.2h2.9v-0.2c-0.4,0-0.5-0.3-0.5-0.9v-1.6l0.3-0.1
		c0.4,0.5,1.3,1.8,1.3,2.4c0,0.3-0.2,0.3-0.4,0.3v0.2h3.1v-0.2c-0.4,0-0.6-0.4-0.7-0.8c-0.3-1-0.9-1.9-1.6-2.6
		c0.6-0.3,1.3-0.8,1.3-1.6c0-0.4-0.2-0.6-0.5-0.8c-0.4-0.1-0.8-0.1-1.1-0.1H133v0.2c0.4,0,0.5,0.3,0.5,0.9L133.5,117.9L133.5,117.9z
		 M136.9,114.3c0,0.8-0.9,1.2-1.5,1.3v-1.4c0-0.1,0-0.4,0.1-0.5c0.1-0.1,0.4-0.2,0.6-0.2C136.6,113.6,136.9,113.8,136.9,114.3
		L136.9,114.3z"/>
	<path id="_x31_5" d="M142.1,114.1c0-0.7,0.1-0.9,0.5-0.9V113h-2.9v0.2c0.4,0,0.5,0.3,0.5,0.9v3.8c0,0.7-0.1,0.9-0.5,0.9v0.2h2.9
		v-0.2c-0.4,0-0.5-0.3-0.5-0.9V114.1z"/>
	<path id="_x31_6" d="M145,116.7c0.5,0,1,0.1,1.4,0.4c0.4,0.2,0.8,0.7,0.8,1.2c0,0.3-0.2,0.5-0.5,0.5v0.2h3.2v-0.2
		c-0.5-0.1-0.6-0.7-0.8-1.1c-0.6-1.9-1.5-4.3-1.5-4.4c0-0.2,0.1-0.2,0.2-0.2V113h-2.7v0.2c0.1,0,0.2,0.1,0.2,0.2
		c0,0.1-0.1,0.4-0.2,0.5l-1.5,3.9c-0.2,0.4-0.4,1-0.9,1.1v0.2h2.1v-0.2c-0.3,0-0.4-0.1-0.4-0.4c0-0.2,0.1-0.6,0.2-0.8L145,116.7
		L145,116.7z M146.6,116.4c-0.4-0.3-0.8-0.5-1.3-0.5l0.6-1.8L146.6,116.4L146.6,116.4z"/>
</g>
</svg>
