<?xml version="1.0" standalone="no"?>
<!DOCTYPE svg PUBLIC "-//W3C//DTD SVG 20010904//EN"
 "http://www.w3.org/TR/2001/REC-SVG-20010904/DTD/svg10.dtd">
<svg version="1.0" xmlns="http://www.w3.org/2000/svg"
 width="512.000000pt" height="512.000000pt" viewBox="0 0 512.000000 512.000000"
 preserveAspectRatio="xMidYMid meet">

<g transform="translate(0.000000,512.000000) scale(0.100000,-0.100000)"
fill="#000000" stroke="none">
<path d="M2235 4930 c-376 -31 -695 -98 -1005 -212 -241 -89 -557 -266 -732
-410 l-67 -55 60 -7 c84 -10 176 -40 205 -67 17 -16 24 -33 24 -62 0 -47 -22
-70 -135 -142 -167 -105 -337 -298 -438 -494 -74 -144 -121 -289 -142 -442
l-6 -46 77 14 c91 17 132 12 164 -22 36 -38 31 -79 -17 -150 -140 -206 -211
-601 -184 -1026 7 -101 15 -204 18 -229 l5 -46 83 1 c77 0 86 -2 126 -30 66
-46 101 -122 101 -217 0 -76 -27 -163 -58 -189 -31 -26 -14 -32 73 -25 121 10
210 31 329 78 100 39 103 40 135 24 59 -29 137 -153 161 -255 6 -28 15 -51 19
-51 4 0 20 16 36 36 69 87 79 94 126 94 102 0 259 -76 327 -158 70 -85 129
-238 130 -335 l0 -38 35 27 c20 15 68 69 107 121 39 52 81 99 94 105 33 15 67
3 119 -42 109 -94 199 -230 240 -360 9 -30 19 -61 21 -69 3 -11 10 -9 29 9 36
34 65 100 75 171 11 78 37 109 93 109 74 0 190 -113 233 -226 9 -24 20 -44 24
-44 27 0 110 142 110 187 0 12 12 35 26 52 20 24 34 31 61 31 53 0 71 -15 103
-86 67 -149 249 -258 441 -267 l54 -2 28 80 c42 120 54 255 34 374 -13 80 -14
100 -3 126 15 35 63 61 97 52 11 -3 19 -2 17 1 -2 4 -24 50 -50 103 -130 268
-202 605 -202 944 1 161 4 190 27 277 57 216 176 379 375 516 l73 50 -33 25
c-115 87 -200 120 -385 152 -297 50 -363 74 -440 158 -66 72 -77 100 -77 197
0 67 5 96 22 135 47 103 81 114 209 70 123 -41 227 -56 473 -65 129 -6 267
-16 305 -24 39 -8 71 -13 71 -12 3 3 -14 127 -17 130 -2 2 -42 15 -88 30 -167
53 -317 143 -435 261 l-64 65 -26 -43 c-42 -73 -137 -126 -227 -127 -139 -1
-256 105 -275 250 -6 46 -9 51 -28 46 -12 -4 -67 -11 -123 -18 -245 -27 -435
38 -528 183 -28 43 -55 130 -55 177 0 44 46 92 88 92 38 0 92 -44 92 -74 0
-38 21 -89 49 -119 43 -47 96 -68 195 -77 116 -11 202 0 331 44 120 42 229 54
306 36 82 -19 181 -89 324 -230 72 -70 155 -146 185 -170 68 -53 194 -115 266
-131 l53 -12 47 52 c26 29 64 61 85 72 22 11 39 21 39 23 0 12 -63 182 -88
237 -75 165 -196 334 -336 466 -226 215 -535 354 -906 409 -126 18 -527 26
-685 14z"/>
<path d="M3142 4004 c-33 -23 -45 -60 -32 -100 31 -93 161 -81 176 17 8 51
-33 99 -85 99 -20 0 -47 -7 -59 -16z"/>
<path d="M4383 3650 c-53 -11 -92 -31 -123 -65 -21 -22 -25 -38 -28 -98 -3
-71 10 -131 52 -245 14 -37 14 -47 2 -76 -26 -62 -59 -68 -168 -32 -135 45
-215 56 -463 66 -191 8 -264 15 -360 35 -66 13 -126 25 -132 25 -17 0 -16 -34
1 -68 29 -56 123 -88 386 -132 207 -35 272 -64 495 -221 134 -94 230 -146 355
-192 102 -37 230 -70 230 -58 0 9 -85 82 -162 140 -67 50 -84 87 -64 136 16
38 42 55 84 55 64 0 340 -244 411 -363 18 -31 44 -85 58 -119 13 -35 27 -72
32 -82 6 -16 15 -2 43 65 76 181 102 369 79 567 -42 361 -195 581 -451 647
-76 20 -219 28 -277 15z m255 -116 c14 -16 22 -38 22 -61 0 -30 -10 -45 -69
-106 -64 -66 -73 -72 -111 -72 -53 0 -90 38 -90 91 0 29 10 46 53 91 92 99
145 114 195 57z"/>
</g>
</svg>
